# xmcd CD database file generated by Grip 3.0.7
# 
# Track frame offsets:
#       187
#       17130
#       37387
#       51757
#       78535
#       96550
#       112215
#       124662
#       139085
#       156745
#       170862
#       184230
#       195020
# 
# Disc length: 2780 seconds
# 
# Revision: 2
# Processed by: cddbd v1.5PL3 Copyright (c) Steve Scherf et al.
# Submitted via: Grip 3.0.7
# 
DISCID=c40ada0d
DTITLE=Lou Rawls - Stormy Monday
DYEAR=1962
DGENRE=Blues
TTITLE0=(They Call It) Stormy Monday
TTITLE1=God Bless the Child
TTITLE2=See See Rider
TTITLE3=Willow Weep for Me
TTITLE4=I'm Gonna Move to the Outskirts of Town
TTITLE5=In the Evening (When the Sun Goes Down)
TTITLE6='Tain't Nobody's Business If I Do
TTITLE7=Lost and Lookin'
TTITLE8=I'd Rather Drink Muddy Water
TTITLE9=Sweet Lover
TTITLE10=Blues Is a Woman [*]
TTITLE11=A Little Les of Lou's Blues [*]
TTITLE12=(They Call It) Stormy Monday [alternate take/*]
EXTD=
EXTT0=
EXTT1=
EXTT2=
EXTT3=
EXTT4=
EXTT5=
EXTT6=
EXTT7=
EXTT8=
EXTT9=
EXTT10=
EXTT11=
EXTT12=
PLAYORDER=
